<?xml version="1.0" encoding="utf-8" ?>
<svg fill="#f0f0f0" xmlns="http://www.w3.org/2000/svg" xmlns:xlink="http://www.w3.org/1999/xlink" width="512"
	height="512">
	<path
		d="M396.251 191.206L256.452 271.801C253.06 270.301 249.856 268.165 246.665 266.273L179.545 227.336L62.011 161.435C58.342 159.564 53.5799 158.101 50.5226 155.393C51.6836 138.76 64.2701 131.398 77 124.005L139.048 87.0827L232.088 32.6157C234.707 30.9706 237.293 29.1424 240.12 27.875L240.306 232.64L271.928 232.737L271.889 28.0698C278.862 31.41 285.45 35.8226 292.052 39.8412L434.09 123.663C447.748 131.918 458.84 137.329 460.316 155.543C458.246 156.99 455.824 158.139 453.596 159.338L396.251 191.206Z" />
	<path
		d="M129.388 426.422L75.581 395.859C57.6024 385.012 48.6944 378.498 48.6679 354.952L48.6769 317.953C48.6802 313.349 48.5278 308.685 48.8594 304.093C52.7649 305.817 56.5587 308.305 60.3024 310.387L149.96 360.192C150.863 360.623 152.036 360.825 152.755 361.534L152.96 326.103C151.906 324.95 149.879 324.363 148.473 323.569L52.2483 270.73C48.7194 268.845 48.6147 269.574 48.6264 265.543L48.6777 189.952L189.192 268.756C200.019 274.736 211.503 280.151 221.705 287.162C240.97 300.402 240.217 315.995 240.232 336.39L240.248 455.371C240.25 458.826 240.757 463.281 239.792 466.59L238.9 469.003C234.61 478.558 223.763 480.481 214.992 476.168L129.388 426.422Z" />
	<path
		d="M360.625 439.247L296.245 476.6C285.849 481.999 272.541 475.423 271.917 463.513C271.522 455.988 271.931 448.213 271.935 440.667L271.92 344.726C271.903 323.796 269.048 302.944 288.027 288.317C295.182 282.802 304.052 278.79 311.962 274.419L461.933 190.375L462.864 268.837C461.816 269.746 453.464 273.887 451.607 274.867L380.019 314.07C373.589 317.758 373.735 325.518 374.662 332.503L374.73 333C375.923 341.985 384.973 346.1 392.786 342.656C397.821 340.436 402.581 337.357 407.411 334.715L458.427 306.873C459.777 306.163 461.457 305.675 462.655 304.789L462.834 304.653C463.065 308.054 462.931 311.536 462.938 314.947L462.922 349.75C462.918 354.697 463.029 359.756 462.099 364.638L461.245 368.703C457.31 383.269 446.564 390.55 434.079 397.317L360.625 439.247Z" />
</svg>
